<?xml version="1.0" standalone="no"?><!DOCTYPE svg PUBLIC "-//W3C//DTD SVG 1.1//EN" "http://www.w3.org/Graphics/SVG/1.1/DTD/svg11.dtd"><svg t="1681616311441" class="icon" viewBox="0 0 1024 1024" version="1.1" xmlns="http://www.w3.org/2000/svg" p-id="2468" xmlns:xlink="http://www.w3.org/1999/xlink" width="512" height="512"><path d="M520.74367892 509.2894737m-498.28985298 0a498.28985296 498.28985296 0 1 0 996.57970783 0 498.28985296 498.28985296 0 1 0-996.57970783 0Z" fill="#06B6E1" p-id="2469"></path><path d="M520.74367892 580.47373978m-379.64941207 0a379.64941206 379.64941206 0 1 0 759.2988241 0 379.64941206 379.64941206 0 1 0-759.2988241 0Z" fill="#FFFFFF" p-id="2470"></path><path d="M236.00662035 295.73667929a166.09661765 142.36853023 90 1 0 284.73705857 0 166.09661765 142.36853023 90 1 0-284.73705857 0Z" fill="#FFFFFF" p-id="2471"></path><path d="M449.55941475 366.9209454m-23.72808742 0a23.72808741 23.72808741 0 1 0 47.45617482 0 23.72808741 23.72808741 0 1 0-47.45617482 0Z" p-id="2472"></path><path d="M520.74367892 295.73667929a166.09661765 142.36853023 90 1 0 284.73706048 0 166.09661765 142.36853023 90 1 0-284.73706048 0Z" fill="#FFFFFF" p-id="2473"></path><path d="M591.92794499 366.9209454m-23.72808935 0a23.72808741 23.72808741 0 1 0 47.45617674 0 23.72808741 23.72808741 0 1 0-47.45617674 0Z" p-id="2474"></path><path d="M520.74367892 485.56138628m-71.18426417 0a71.18426416 71.18426416 0 1 0 142.36853024 0 71.18426416 71.18426416 0 1 0-142.36853024 0Z" fill="#C93E01" p-id="2475"></path><path d="M520.74367892 556.74565045v261.00897115" fill="#333333" p-id="2476"></path><path d="M188.55044359 983.85123925l-237.28088181 142.36853021 71.18426416 189.8247051 189.82470698-94.91235159v355.92132273h261.00896923a237.28088183 71.18426416 90 0 1 94.91235349 0h261.00897119v-355.92132273l189.82470694 94.91235159 71.18426417-189.8247051-237.28088181-142.36853021z" fill="#06B6E1" p-id="2477"></path><path d="M-1.27426146 1221.13212297m-118.64044283 0a118.64044087 118.64044087 0 1 0 237.28088371 0 118.64044087 118.64044087 0 1 0-237.28088371 0Z" fill="#FFFFFF" p-id="2478"></path><path d="M1042.76162119 1221.13212297m-118.6404409 0a118.64044087 118.64044087 0 1 0 237.28088183 0 118.64044087 118.64044087 0 1 0-237.28088183 0Z" fill="#FFFFFF" p-id="2479"></path><path d="M212.27853292 1577.0534457a9.49123572 9.49123572 0 0 0-23.72808933 94.9123535h284.73705856a9.49123572 7.11842583 90 0 0 0-94.9123535zM829.20882683 1577.0534457a9.49123572 9.49123572 0 0 1 23.7280893 94.9123535h-284.73706049a9.49123572 7.11842583 90 0 1 0-94.9123535z" fill="#FFFFFF" p-id="2480"></path><path d="M520.74367892 1173.67594625m-275.24582285 0a275.24582474 275.24582474 0 1 0 550.49164759 0 275.24582474 275.24582474 0 1 0-550.49164759 0Z" fill="#FFFFFF" p-id="2481"></path><path d="M330.91897385 1149.9478569a237.28088183 189.82470698 90 0 0 379.64941203 0z" fill="#FFFFFF" p-id="2482"></path><path d="M164.82235616 888.93888578m37.96494106 0l635.91276532 0q37.96494102 0 37.964941 37.96494099l0 18.98247146q0 37.96494102-37.964941 37.96494102l-635.91276532 0q-37.96494102 0-37.96494106-37.96494102l0-18.98247146q0-37.96494102 37.96494106-37.96494099Z" fill="#C13901" p-id="2483"></path><path d="M520.74367892 998.08809285m-71.18426417 0a71.18426416 71.18426416 0 1 0 142.36853024 0 71.18426416 71.18426416 0 1 0-142.36853024 0Z" fill="#F5ED27" p-id="2484"></path><path d="M520.74367892 1007.57932858m-23.72808742 0a23.72808741 23.72808741 0 1 0 47.45617672 0 23.72808741 23.72808741 0 1 0-47.45617672 0Z" p-id="2485"></path></svg>